<?xml version="1.0" encoding="UTF-8" standalone="no"?>
<!-- Created with Inkscape (http://www.inkscape.org/) -->

<svg
   xmlns:dc="http://purl.org/dc/elements/1.1/"
   xmlns:cc="http://creativecommons.org/ns#"
   xmlns:rdf="http://www.w3.org/1999/02/22-rdf-syntax-ns#"
   xmlns:svg="http://www.w3.org/2000/svg"
   xmlns="http://www.w3.org/2000/svg"
   xmlns:sodipodi="http://sodipodi.sourceforge.net/DTD/sodipodi-0.dtd"
   xmlns:inkscape="http://www.inkscape.org/namespaces/inkscape"
   width="24"
   height="24"
   viewBox="0 0 24 24"
   version="1.1"
   id="svg8"
   inkscape:version="0.92.5 (2060ec1f9f, 2020-04-08)"
   sodipodi:docname="logo.svg">
  <defs
     id="defs2" />
  <sodipodi:namedview
     id="base"
     pagecolor="#ffffff"
     bordercolor="#666666"
     borderopacity="1.0"
     inkscape:pageopacity="0.0"
     inkscape:pageshadow="2"
     inkscape:zoom="5.6"
     inkscape:cx="-36.660128"
     inkscape:cy="10.006135"
     inkscape:document-units="px"
     inkscape:current-layer="layer1"
     showgrid="false"
     units="px"
     inkscape:window-width="1920"
     inkscape:window-height="1043"
     inkscape:window-x="0"
     inkscape:window-y="0"
     inkscape:window-maximized="1" />
  <metadata
     id="metadata5">
    <rdf:RDF>
      <cc:Work
         rdf:about="">
        <dc:format>image/svg+xml</dc:format>
        <dc:type
           rdf:resource="http://purl.org/dc/dcmitype/StillImage" />
        <dc:title />
      </cc:Work>
    </rdf:RDF>
  </metadata>
  <g
     inkscape:groupmode="layer"
     id="layer1"
     inkscape:label="Layer 1">
    <path
       style="opacity:1;fill:#000000;fill-opacity:1;stroke:none;stroke-width:1px;stroke-linecap:butt;stroke-linejoin:miter;stroke-opacity:1"
       d="m 15.596816,7.999158 c 0,0 -1.591511,-1.0822199 -4.328912,2.164464 C 8.5305045,13.410305 8.3156495,12.757781 7.5517238,12.948761 6.7877981,13.998977 -4.5e-7,16.827701 -4.5e-7,16.720649 4.9099876,15.505817 7.5573668,15.286553 9.4854115,15.383777 c 0,0 -1.7188335,0.827592 -1.9098149,2.546424 -0.1909815,1.718831 -0.7639257,2.992043 1.2732099,3.628643 1.4068245,0.134232 2.5556595,0.0828 3.5172395,0.572988 -1.656512,-2.164128 -4.5763645,-1.630476 -3.0716165,-4.392575 0.700265,-1.336872 2.2281165,-2.164452 2.7373995,-2.291784 0.509284,-0.12732 2.61008,0.19098 2.61008,0.19098 0,0 -0.747177,0.77604 -1.46419,2.419103 -0.599564,1.373904 -0.488016,2.313048 0.381962,2.673732 0.458363,-0.09624 3.998383,0.369432 4.424404,0.87534 -0.629421,-1.61028 -3.897281,-1.830876 -3.724138,-3.230772 0,0 1.336869,-1.209551 1.846153,-2.164463 0.509284,-0.9549 0.190982,-2.992032 0.190982,-2.992032 0.483239,-0.066 0.720483,-0.255144 0.954907,-0.44562 l 0.650353,0.710525 c 0.371522,0.1746 0.618039,0.09924 0.913419,0.121512 -0.296397,-0.135348 -0.597169,-0.270708 -0.769734,-0.406056 -0.323758,-0.350328 -0.151979,-0.186845 -0.475736,-0.744293 0.179522,-0.38664 0.30581,-0.400608 0.445624,-0.509279 0.229614,-0.206772 0.360376,0.278423 0.509284,0.636599 0.646579,0.126048 1.018568,-0.297084 1.527852,-0.44562 l -0.970823,0.04764 c -0.788924,-0.09312 -0.541297,-1.050239 -0.811672,-1.575587 0,0 0.286473,-0.8275797 0.541114,-1.1458923 0.254642,-0.3182999 0.986738,-0.7002599 0.986738,-0.7002599 0,0 2.482759,0.50928 3.055704,0.38196 0.572944,-0.12732 1.018567,-0.25464 1.082228,-0.7002599 C 24,7.999098 24,7.4898181 24,7.4898181 c 0,0 -1.973474,0 -2.291777,-0.381972 -0.9776,-0.184164 -1.317987,-0.9860278 -1.209544,-1.0185598 -0.178039,-1.2473638 1.362865,-2.0980677 2.164455,-3.1193635 0,0 -1.209548,-1.2732237 -1.909814,-1.0822318 -0.700265,0.19098 -1.591512,1.6551717 -2.164456,1.9098117 -0.572944,0.2546399 -1.209549,-0.127308 -1.33687,0.3819599 -0.127321,0.5092919 -0.572944,0.9549118 -0.636606,1.2732118 -0.06366,0.3182999 0.190983,1.2732118 0.190983,1.2732118 -0.477887,0.3322919 -0.815422,0.7945198 -1.20955,1.2732238 z"
       id="path826"
       inkscape:connector-curvature="0"
       sodipodi:nodetypes="cscccscccscscccscccccccccccccscccccccccccc" />
  </g>
</svg>
