<?xml version="1.0" encoding="UTF-8" standalone="no"?>
<!-- Created with Inkscape (http://www.inkscape.org/) -->

<svg
   xmlns:dc="http://purl.org/dc/elements/1.1/"
   xmlns:cc="http://creativecommons.org/ns#"
   xmlns:rdf="http://www.w3.org/1999/02/22-rdf-syntax-ns#"
   xmlns:svg="http://www.w3.org/2000/svg"
   xmlns="http://www.w3.org/2000/svg"
   xmlns:sodipodi="http://sodipodi.sourceforge.net/DTD/sodipodi-0.dtd"
   xmlns:inkscape="http://www.inkscape.org/namespaces/inkscape"
   width="24"
   height="24"
   viewBox="0 0 24 24"
   version="1.1"
   id="svg8"
   inkscape:version="0.92.5 (2060ec1f9f, 2020-04-08)"
   sodipodi:docname="logo.svg">
  <defs
     id="defs2" />
  <sodipodi:namedview
     id="base"
     pagecolor="#ffffff"
     bordercolor="#666666"
     borderopacity="1.0"
     inkscape:pageopacity="0.0"
     inkscape:pageshadow="2"
     inkscape:zoom="16"
     inkscape:cx="15.761618"
     inkscape:cy="11.736188"
     inkscape:document-units="px"
     inkscape:current-layer="layer1"
     showgrid="false"
     units="px"
     inkscape:window-width="1294"
     inkscape:window-height="704"
     inkscape:window-x="309"
     inkscape:window-y="1107"
     inkscape:window-maximized="1" />
  <metadata
     id="metadata5">
    <rdf:RDF>
      <cc:Work
         rdf:about="">
        <dc:format>image/svg+xml</dc:format>
        <dc:type
           rdf:resource="http://purl.org/dc/dcmitype/StillImage" />
        <dc:title />
      </cc:Work>
    </rdf:RDF>
  </metadata>
  <g
     inkscape:groupmode="layer"
     id="layer1"
     inkscape:label="Layer 1">
    <path
       style="opacity:1;fill:#000000;fill-opacity:1;stroke:none;stroke-width:1px;stroke-linecap:butt;stroke-linejoin:miter;stroke-opacity:1"
       d="m 15.596816,7.999158 c 0,0 -3.155072,1.1615824 -4.328912,2.164464 -1.17384,1.002882 -2.7816057,2.377457 -3.7161802,2.785139 -0.9345745,0.407682 -7.48922425,3.44144 -7.55172425,3.771888 0.30061305,0.222668 7.88549225,-1.777846 9.48541195,-1.336872 0,0 -1.605468,0.844005 -1.9098149,2.546424 -0.089462,0.500423 -0.2923122,2.805098 0.3200849,3.503643 0.5406754,0.05159 1.997778,0.18621 2.4648475,0.23878 0.286516,0.03225 1.363488,0.572123 1.444963,0.578943 0.219265,0.01836 -0.521148,-0.470829 -0.31799,-0.425737 0.309486,0.06869 0.601772,0.164911 0.878544,0.306002 -1.656512,-2.164128 -4.5763645,-1.630476 -3.0716165,-4.392575 0.700265,-1.336872 2.2281165,-2.164452 2.7373995,-2.291784 0.509284,-0.12732 2.61008,0.19098 2.61008,0.19098 0,0 -0.868081,0.728417 -1.46419,2.419103 -0.457749,1.298269 -0.03992,2.074063 0.381962,2.673732 0.26074,-0.05475 1.534036,0.0036 2.633337,0.285221 0.440879,0.112963 0.957488,0.716672 1.088299,0.745315 0.214228,0.04691 -0.268098,-0.566083 -0.08632,-0.513938 0.390247,0.111941 0.684145,0.234121 0.789088,0.358742 -0.629421,-1.61028 -3.194156,-2.159001 -3.724138,-2.730772 0,0 1.336869,-1.709551 1.846153,-2.664463 0.509284,-0.9549 0.190982,-2.992032 0.190982,-2.992032 0.483239,-0.066 0.720483,-0.255144 0.954907,-0.44562 l 0.650353,0.710525 c 0.371522,0.1746 0.673282,0.148958 0.913419,0.121512 -0.09061,-0.106231 -0.303518,-0.101979 -0.419149,-0.158494 -0.06724,-0.03286 0.498299,-0.0381 0.438971,-0.07096 -0.08301,-0.04598 -0.631503,-0.05881 -0.789556,-0.176597 -0.323758,-0.350328 -0.151979,-0.186845 -0.475736,-0.744293 0.179522,-0.38664 0.30581,-0.400608 0.445624,-0.509279 0.229614,-0.206772 0.360376,0.278423 0.509284,0.636599 0.333278,0.06513 1.280125,-0.19164 1.566063,-0.298518 -0.125804,-0.07717 -0.396948,0.03891 -0.358708,-0.03046 0.06107,-0.110789 0.15003,-0.06692 0.320497,-0.116643 -0.425638,-0.144711 -0.805743,0.0065 -1.205198,0.03201 -0.28497,-0.03788 -0.306922,-1.034614 -0.577297,-1.559962 0,0 0.286473,-0.8275797 0.541114,-1.1458923 0.254642,-0.3182999 0.986738,-0.7002599 0.986738,-0.7002599 0,0 2.482759,0.50928 3.055704,0.38196 0.572944,-0.12732 1.018567,-0.25464 1.082228,-0.7002599 C 24,7.999098 24,7.4898181 24,7.4898181 c 0,0 -0.129946,0 -0.328527,-0.00645 -0.07661,-0.00249 -0.12995,-0.4300474 -0.223468,-0.4348288 -0.06057,-0.0031 -0.157439,0.4173545 -0.222675,0.4130398 -0.05438,-0.0036 -0.154689,-0.4317587 -0.211089,-0.4363299 -0.06306,-0.00511 -0.08239,0.4132397 -0.14651,0.4067562 -0.04131,-0.00418 -0.09383,-0.4216019 -0.135048,-0.4264041 -0.06068,-0.00707 -0.109883,0.3981048 -0.169261,0.3895625 -0.0669,-0.00962 -0.13255,-0.3885306 -0.19601,-0.4002114 -0.05385,-0.00991 -0.106115,0.3477046 -0.156228,0.33618 -0.09162,-0.021069 -0.150359,-0.5446034 -0.222359,-0.5133762 -0.07384,0.032025 -0.179057,0.3237891 -0.280602,0.2900939 -0.0542,-0.010211 -0.0127,-0.4090401 -0.06302,-0.4228128 -0.06949,-0.019021 -0.229062,0.3455051 -0.29129,0.3207643 -0.691359,-0.3124312 -1.015546,-0.518274 -1.004105,-0.9952307 0.0071,-0.2954962 0.344183,-0.9155264 0.534707,-1.1744125 0.05018,-0.068186 0.389047,0.2589741 0.445575,0.1922532 0.04407,-0.05202 -0.195294,-0.4981769 -0.14813,-0.5494843 0.04938,-0.053718 0.430628,0.3036257 0.48264,0.250515 0.03846,-0.039269 -0.25283,-0.4891112 -0.213305,-0.5281334 0.05774,-0.057001 0.445696,0.3103301 0.5049,0.253667 0.04357,-0.041697 -0.241842,-0.5074401 -0.197912,-0.5490597 0.0555,-0.052614 0.467139,0.2865384 0.522473,0.2338856 0.04193,-0.039895 -0.272337,-0.4715676 -0.230897,-0.5115757 0.06097,-0.058872 0.499573,0.2425815 0.558568,0.1832525 0.05242,-0.052723 -0.274497,-0.4661659 -0.224437,-0.5194358 0.05095,-0.054223 0.47882,0.3108686 0.526514,0.255895 0.04544,-0.05238 -0.28912,-0.5247853 -0.247344,-0.5780114 0,0 -1.209548,-1.2732237 -1.909814,-1.0822318 -0.700265,0.19098 -1.591512,1.6551717 -2.164456,1.9098117 -0.573011,0.2542889 -1.085198,-0.3172905 -1.314773,-0.1538945 -0.386581,0.2751426 -0.595041,1.4907662 -0.658703,1.8090662 -0.06366,0.3182999 0.190983,1.2732118 0.190983,1.2732118 -0.477887,0.3322919 -0.815422,0.7945198 -1.20955,1.2732238 z"
       id="path826"
       inkscape:connector-curvature="0"
       sodipodi:nodetypes="czzccscsssccscscsssccsccccsscccccscccccsccsssssssssscscssssssssssssscccscccc" />
  </g>
</svg>
